<?xml version="1.0" standalone="no"?>
<!DOCTYPE svg PUBLIC "-//W3C//DTD SVG 20010904//EN"
 "http://www.w3.org/TR/2001/REC-SVG-20010904/DTD/svg10.dtd">
<svg version="1.0" xmlns="http://www.w3.org/2000/svg"
 width="100.000000pt" height="100.000000pt" viewBox="0 0 100.000000 100.000000"
 preserveAspectRatio="xMidYMid meet">
<metadata>
Created by potrace 1.11, written by Peter Selinger 2001-2013
</metadata>
<g transform="translate(0.000000,100.000000) scale(0.100000,-0.100000)"
fill="#000000" stroke="none">
<path d="M559 973 c-17 -21 -80 -118 -97 -149 -10 -20 -9 -21 31 -20 27 1 49
8 63 21 46 44 157 140 165 143 5 2 9 8 9 13 0 5 -35 9 -78 9 -63 0 -82 -4 -93
-17z"/>
<path d="M16 971 c-5 -8 250 -265 782 -790 156 -153 192 -182 192 -151 0 8
-294 302 -838 839 -110 109 -125 120 -136 102z"/>
<path d="M475 715 c-52 -12 -95 -31 -95 -43 0 -3 23 -30 52 -59 l51 -52 23 24
c43 46 118 24 129 -38 3 -18 7 -58 8 -90 3 -58 4 -58 82 -137 48 -48 83 -76
88 -71 11 11 14 205 5 274 -14 99 -76 175 -160 193 -48 10 -135 10 -183 -1z"/>
</g>
</svg>
